<?xml version="1.0" encoding="utf-8"?>
<!-- Generator: Adobe Illustrator 21.0.2, SVG Export Plug-In . SVG Version: 6.00 Build 0)  -->
<svg version="1.1" id="Layer_1" xmlns="http://www.w3.org/2000/svg" xmlns:xlink="http://www.w3.org/1999/xlink" x="0px" y="0px"
	 viewBox="0 0 24 24" style="enable-background:new 0 0 24 24;" xml:space="preserve">
<style type="text/css">
	.st0{fill:#CCCCCC;}
</style>
<g>
	<path class="st0" d="M21.8,24H2.2C1,24,0,23,0,21.8V2.2C0,1,1,0,2.2,0h19.6C23,0,24,1,24,2.2v19.6C24,23,23,24,21.8,24z M2.2,1.8
		C2,1.8,1.8,2,1.8,2.2v19.6c0,0.2,0.2,0.4,0.4,0.4h19.6c0.2,0,0.4-0.2,0.4-0.4V2.2c0-0.2-0.2-0.4-0.4-0.4H2.2z"/>
	<path d="M21.9,24H2.1C1,24,0,23.1,0,21.9v-8.7c0-1.2,1-2.1,2.1-2.1h19.8c1.2,0,2.1,0.9,2.1,2.1v8.7C24,23.1,23,24,21.9,24z
		 M2.1,12.9c-0.2,0-0.3,0.1-0.3,0.3v8.7c0,0.2,0.1,0.3,0.3,0.3h19.8c0.2,0,0.3-0.1,0.3-0.3v-8.7c0-0.2-0.1-0.3-0.3-0.3H2.1z"/>
</g>
</svg>
