<svg xmlns="http://www.w3.org/2000/svg" width="16" height="16" viewBox="0 0 16 16"><title>half-size</title><rect width="16" height="16" style="fill:none"/><g style="opacity:0.25"><path d="M14.5,16H1.5A1.5,1.5,0,0,1,0,14.5V1.5A1.5,1.5,0,0,1,1.5,0h13A1.5,1.5,0,0,1,16,1.5v13A1.5,1.5,0,0,1,14.5,16ZM1.5,1a.5.5,0,0,0-.5.5v13a.5.5,0,0,0,.5.5h13a.5.5,0,0,0,.5-.5V1.5a.5.5,0,0,0-.5-.5Z"/></g><path d="M14.5,16H1.5A1.5,1.5,0,0,1,0,14.5v-6A1.5,1.5,0,0,1,1.5,7h13A1.5,1.5,0,0,1,16,8.5v6A1.5,1.5,0,0,1,14.5,16ZM1.5,8a.5.5,0,0,0-.5.5v6a.5.5,0,0,0,.5.5h13a.5.5,0,0,0,.5-.5v-6a.5.5,0,0,0-.5-.5Z"/><rect width="16" height="16" style="fill:none"/></svg>