<svg id="Layer_1" data-name="Layer 1" xmlns="http://www.w3.org/2000/svg" width="22" height="22" viewBox="0 0 22 22"><title>mocked</title><path d="M8.8,7a.73.73,0,0,1,.65.48L10.89,12c.08.26.16.48.16.48s.07-.22.15-.48l1.36-4.54A.71.71,0,0,1,13.2,7h1.3a.5.5,0,0,1,.5.5v7a.5.5,0,0,1-.5.5H14a.5.5,0,0,1-.5-.5V9.83c0-.28,0-.5,0-.5s-.08.21-.16.48l-1.51,4.72a.73.73,0,0,1-.65.48h-.26a.73.73,0,0,1-.65-.48L8.7,9.86c-.08-.26-.16-.48-.16-.48s0,.22,0,.5V14.5A.5.5,0,0,1,8,15H7.5a.5.5,0,0,1-.5-.5v-7A.5.5,0,0,1,7.5,7Z"/><path d="M16.75,19H5.25A2.25,2.25,0,0,1,3,16.75V5.25A2.25,2.25,0,0,1,5.25,3h11.5A2.25,2.25,0,0,1,19,5.25v11.5A2.25,2.25,0,0,1,16.75,19ZM5.25,3.5A1.75,1.75,0,0,0,3.5,5.25v11.5A1.75,1.75,0,0,0,5.25,18.5h11.5a1.75,1.75,0,0,0,1.75-1.75V5.25A1.75,1.75,0,0,0,16.75,3.5Z"/><rect width="22" height="22" style="fill:none"/></svg>