<svg id="Layer_1" data-name="Layer 1" xmlns="http://www.w3.org/2000/svg" width="22" height="22" viewBox="0 0 22 22"><title>mocked</title><path d="M8.37,6A.73.73,0,0,1,9,6.48L10.9,12.4c.08.26.16.48.16.48s.08-.22.16-.48L13,6.48A.71.71,0,0,1,13.63,6H15.5a.5.5,0,0,1,.5.5v9a.5.5,0,0,1-.5.5h-.91a.5.5,0,0,1-.5-.5V9.41a4.76,4.76,0,0,0,0-.5s-.08.21-.17.48l-2,6.13a.73.73,0,0,1-.65.48h-.57a.73.73,0,0,1-.65-.48l-2-6.07C8,9.2,7.93,9,7.92,9a4.76,4.76,0,0,0,0,.5v6a.5.5,0,0,1-.5.5H6.5a.5.5,0,0,1-.5-.5v-9A.5.5,0,0,1,6.5,6Z"/><rect x="3.25" y="3.25" width="15.5" height="15.5" rx="2" ry="2" style="fill:none;stroke:#000;stroke-miterlimit:10;stroke-width:0.5px"/><rect width="22" height="22" style="fill:none"/></svg>