<svg id="Layer_1" data-name="Layer 1" xmlns="http://www.w3.org/2000/svg" width="32" height="16" viewBox="0 0 32 16"><title>pro</title><path d="M15.58,6.13h-1V7.82h1c.61,0,1-.32,1-.84A.86.86,0,0,0,15.58,6.13ZM23,6.08c-.91,0-1.52.75-1.52,1.92s.6,1.92,1.52,1.92S24.52,9.17,24.52,8,23.91,6.08,23,6.08ZM8.41,6.15H7.65V8.09H8.4c.7,0,1.12-.34,1.12-1S9.11,6.15,8.41,6.15ZM26,1H6C2.5,1,1,2.5,1,6v4c0,3.5,1.5,5,5,5H26c3.5,0,5-1.5,5-5V6C31,2.5,29.5,1,26,1ZM8.75,9.26H7.65V11H6V5H8.85a2.13,2.13,0,0,1,2.34,2.15A2.18,2.18,0,0,1,8.75,9.26ZM16.57,11,15.46,8.91H14.6V11H13V5h2.86c1.52,0,2.43.75,2.43,2a1.81,1.81,0,0,1-1.11,1.72L18.42,11ZM23,11.2A3,3,0,0,1,19.8,8,3,3,0,0,1,23,4.8,3,3,0,0,1,26.2,8,3,3,0,0,1,23,11.2Z" style="fill-rule:evenodd"/></svg>