<svg id="Layer_1" data-name="Layer 1" xmlns="http://www.w3.org/2000/svg" width="16" height="16" viewBox="0 0 16 16"><title>settings</title><rect width="16" height="16" style="fill:#fff"/><path d="M8,2a6,6,0,1,0,6,6A6,6,0,0,0,8,2ZM8,12.75A4.75,4.75,0,1,1,12.77,8,4.75,4.75,0,0,1,8,12.75Z" style="fill-rule:evenodd"/><polygon points="4.32 14.86 5.98 13.27 3.9 11.88 3.07 14.03 4.32 14.86" style="fill-rule:evenodd"/><polygon points="12.93 1.97 11.68 1.14 10.02 2.73 12.1 4.12 12.93 1.97" style="fill-rule:evenodd"/><polygon points="0.55 10.25 2.85 10.3 2.36 7.85 0.25 8.78 0.55 10.25" style="fill-rule:evenodd"/><polygon points="15.75 7.22 15.46 5.75 13.15 5.7 13.64 8.15 15.75 7.22" style="fill-rule:evenodd"/><polygon points="1.14 4.32 2.73 5.98 4.12 3.9 1.97 3.07 1.14 4.32" style="fill-rule:evenodd"/><polygon points="14.03 12.93 14.86 11.68 13.27 10.02 11.88 12.1 14.03 12.93" style="fill-rule:evenodd"/><polygon points="5.75 0.55 5.7 2.85 8.15 2.36 7.22 0.25 5.75 0.55" style="fill-rule:evenodd"/><polygon points="8.78 15.75 10.25 15.46 10.3 13.15 7.85 13.64 8.78 15.75" style="fill-rule:evenodd"/></svg>