<svg id="Layer_1" data-name="Layer 1" xmlns="http://www.w3.org/2000/svg" width="22" height="22" viewBox="0 0 22 22"><title>unmocked</title><path d="M15.5,6H13.63a.71.71,0,0,0-.64.48l-.83,2.77,1.36,1.35.39-1.21c.08-.26.16-.48.17-.48a4.74,4.74,0,0,1,0,.5v1.75L16,13.05V6.5A.5.5,0,0,0,15.5,6Zm-5.44,9.52a.74.74,0,0,0,.65.48h.57a.73.73,0,0,0,.65-.48l.21-.66L8.76,11.51ZM6,15.5a.5.5,0,0,0,.5.5h.91a.5.5,0,0,0,.5-.5V10.67L6,8.78Z"/><line x1="1.5" y1="1.5" x2="20.5" y2="20.5" style="fill:none;stroke:#000;stroke-miterlimit:10"/><path d="M16.75,3H5.83l.5.5H16.75A1.75,1.75,0,0,1,18.5,5.25V15.67l.5.5V5.25A2.25,2.25,0,0,0,16.75,3ZM5.25,18.5A1.75,1.75,0,0,1,3.5,16.75V6.33L3,5.83V16.75A2.25,2.25,0,0,0,5.25,19H16.17l-.5-.5Z"/><rect width="22" height="22" style="fill:none"/></svg>