<svg id="Layer_1" data-name="Layer 1" xmlns="http://www.w3.org/2000/svg" width="22" height="22" viewBox="0 0 22 22"><title>unmocked</title><path d="M5.25,18.5A1.75,1.75,0,0,1,3.5,16.75V6.33L3,5.83V16.75A2.25,2.25,0,0,0,5.25,19H16.17l-.5-.5ZM16.75,3H5.83l.5.5H16.75A1.75,1.75,0,0,1,18.5,5.25V15.67l.5.5V5.25A2.25,2.25,0,0,0,16.75,3Z"/><path d="M14.5,7H13.2a.71.71,0,0,0-.64.48l-.5,1.67,1.1,1.09.14-.43c.08-.26.16-.48.16-.48s0,.23,0,.5v.72L15,12.06V7.5A.5.5,0,0,0,14.5,7ZM7,14.5a.5.5,0,0,0,.5.5H8a.5.5,0,0,0,.5-.5V11.28L7,9.77Zm3.22,0a.73.73,0,0,0,.65.48h.26a.73.73,0,0,0,.65-.48v0l-2.32-2.3Z"/><rect x="10.5" y="-2.44" width="1" height="26.87" transform="translate(-4.56 11) rotate(-45)"/><rect width="22" height="22" style="fill:none"/></svg>