<?xml version="1.0" encoding="UTF-8"?>
<svg width="178px" height="47px" viewBox="0 0 178 47" version="1.1" xmlns="http://www.w3.org/2000/svg" xmlns:xlink="http://www.w3.org/1999/xlink">
    <g id="Page-1" stroke="none" stroke-width="1" fill="none" fill-rule="evenodd">
        <path d="M0.336,46 L5.264,46 L5.264,9.776 L21.584,33.712 L21.84,33.712 L38.16,9.712 L38.16,46 L43.216,46 L43.216,1.2 L38.096,1.2 L21.776,25.648 L5.456,1.2 L0.336,1.2 L0.336,46 Z M55.184,5.68 L60.816,5.68 L60.816,0.24 L55.184,0.24 L55.184,5.68 Z M55.504,46 L60.432,46 L60.432,12.912 L55.504,12.912 L55.504,46 Z M71.888,46 L76.816,46 L76.816,27.12 C76.816,21.04 80.784,16.688 86.032,16.688 C91.28,16.688 94.544,20.336 94.544,26.544 L94.544,46 L99.408,46 L99.408,26.928 C99.408,20.4 103.568,16.688 108.56,16.688 C113.936,16.688 117.136,20.272 117.136,26.672 L117.136,46 L122.064,46 L122.064,25.52 C122.064,17.328 117.392,12.208 109.776,12.208 C104.016,12.208 100.496,15.152 98.128,18.8 C96.336,15.088 92.88,12.208 87.504,12.208 C81.936,12.208 78.992,15.216 76.816,18.48 L76.816,12.912 L71.888,12.912 L71.888,46 Z M132.688,5.68 L138.32,5.68 L138.32,0.24 L132.688,0.24 L132.688,5.68 Z M133.008,46 L137.936,46 L137.936,12.912 L133.008,12.912 L133.008,46 Z M164.304,46.768 C170.512,46.768 174.48,44.08 177.808,40.368 L174.672,37.424 C172.048,40.24 168.784,42.352 164.56,42.352 C157.648,42.352 152.4,36.656 152.4,29.488 L152.4,29.36 C152.4,22.256 157.52,16.56 164.24,16.56 C168.72,16.56 171.664,18.8 174.288,21.552 L177.552,18.096 C174.48,14.832 170.576,12.208 164.304,12.208 C154.64,12.208 147.344,20.144 147.344,29.488 L147.344,29.616 C147.344,38.896 154.64,46.768 164.304,46.768 Z" id="Mimic" fill="#000000"></path>
    </g>
</svg>
