<?xml version="1.0" ?><!DOCTYPE svg  PUBLIC '-//W3C//DTD SVG 1.1//EN'  'http://www.w3.org/Graphics/SVG/1.1/DTD/svg11.dtd'><svg enable-background="new 0 0 32 32" height="32px" id="Слой_1" version="1.1" viewBox="0 0 32 32" width="32px" xml:space="preserve" xmlns="http://www.w3.org/2000/svg" xmlns:xlink="http://www.w3.org/1999/xlink"><g id="Share"><path clip-rule="evenodd" d="M8.624,21.336h2.015c1.402-7.953,8.329-14,16.684-14   c0.35,0,0.683,0.003,1.019,0.006l-3.664,3.663c-0.391,0.391-0.391,1.023,0,1.414c0.195,0.195,0.451,0.293,0.707,0.293   c0.256,0,0.512-0.098,0.707-0.293L32,6.356l-5.907-6.063c-0.391-0.391-1.023-0.391-1.414,0c-0.391,0.391-0.391,1.023,0,1.414   l3.631,3.631c-0.318-0.001-0.62-0.003-0.945-0.003C17.895,5.336,10.066,12.271,8.624,21.336z" fill="#121313" fill-rule="evenodd"/><path clip-rule="evenodd" d="M29,15c-0.552,0-1,0.448-1,1v14H2V10h9c0.552,0,1-0.448,1-1   c0-0.552-0.448-1-1-1h-0.03H2c-1.104,0-2,0.896-2,2v20c0,1.104,0.896,2,2,2h26c1.104,0,2-0.896,2-2V16C30,15.448,29.552,15,29,15z" fill="#121313" fill-rule="evenodd"/></g><g/><g/><g/><g/><g/><g/></svg>